<svg xmlns="http://www.w3.org/2000/svg" viewBox="0 0 128 128" fill="none"><path d="M43.5 47.5 L19.5 29.5 L26.4 57.4 Z" fill="#F59A3E" stroke="#5B4636" stroke-width="4" stroke-linecap="round" stroke-linejoin="round"/><path d="M39.6 49.6 L24.6 35.5 L29.4 54.4 Z" fill="#F7B5C4"/><path d="M52.5 47.5 L76.5 29.5 L69.6 57.4 Z" fill="#F59A3E" stroke="#5B4636" stroke-width="4" stroke-linecap="round" stroke-linejoin="round"/><path d="M56.4 49.6 L71.4 35.5 L66.6 54.4 Z" fill="#F7B5C4"/><circle cx="48.0" cy="64.0" r="30.0" fill="#F59A3E" stroke="#5B4636" stroke-width="4" stroke-linecap="round" stroke-linejoin="round"/><ellipse cx="31.5" cy="70.6" rx="5.4" ry="3.0" fill="#F7B5C4" opacity=".85"/><ellipse cx="64.5" cy="70.6" rx="5.4" ry="3.0" fill="#F7B5C4" opacity=".85"/><path d="M31.2 65.2 Q36.6 56.8 42.0 65.2" stroke="#5B4636" stroke-width="3.2" stroke-linecap="round" stroke-linejoin="round"/><path d="M54.0 65.2 Q59.4 56.8 64.8 65.2" stroke="#5B4636" stroke-width="3.2" stroke-linecap="round" stroke-linejoin="round"/><path d="M48.0 72.4 l-3.6 3.0 h7.2 Z" fill="#F7B5C4"/><path d="M39.6 77.2 Q48.0 85.0 56.4 77.2" stroke="#5B4636" stroke-width="3" stroke-linecap="round" stroke-linejoin="round"/><path d="M83.0 67.0 L67.0 55.0 L71.6 73.6 Z" fill="#FFD66B" stroke="#5B4636" stroke-width="4" stroke-linecap="round" stroke-linejoin="round"/><path d="M80.4 68.4 L70.4 59.0 L73.6 71.6 Z" fill="#F7B5C4"/><path d="M89.0 67.0 L105.0 55.0 L100.4 73.6 Z" fill="#FFD66B" stroke="#5B4636" stroke-width="4" stroke-linecap="round" stroke-linejoin="round"/><path d="M91.6 68.4 L101.6 59.0 L98.4 71.6 Z" fill="#F7B5C4"/><circle cx="86.0" cy="78.0" r="20.0" fill="#FFD66B" stroke="#5B4636" stroke-width="4" stroke-linecap="round" stroke-linejoin="round"/><ellipse cx="75.0" cy="82.4" rx="3.6" ry="2.0" fill="#F7B5C4" opacity=".85"/><ellipse cx="97.0" cy="82.4" rx="3.6" ry="2.0" fill="#F7B5C4" opacity=".85"/><path d="M75.2 77.6 Q78.4 80.8 81.6 77.6" stroke="#5B4636" stroke-width="3" stroke-linecap="round" stroke-linejoin="round"/><path d="M90.4 77.6 Q93.6 80.8 96.8 77.6" stroke="#5B4636" stroke-width="3" stroke-linecap="round" stroke-linejoin="round"/><path d="M86.0 83.6 l-2.4 2.0 h4.8 Z" fill="#F7B5C4"/><path d="M80.4 86.8 Q86.0 92.0 91.6 86.8" stroke="#5B4636" stroke-width="3" stroke-linecap="round" stroke-linejoin="round"/><path d="M70 70 Q86 58 96 74" stroke="#5B4636" stroke-width="4" stroke-linecap="round" stroke-linejoin="round" fill="none"/><path d="M36 78 Q24 96 40 104" stroke="#5B4636" stroke-width="4" stroke-linecap="round" stroke-linejoin="round" fill="none"/><path d="M108.0 40.2 C96.8 30.4 102.4 24.8 108.0 31.8 C113.6 24.8 119.2 30.4 108.0 40.2 Z" fill="#F7B5C4" stroke="#5B4636" stroke-width="3" stroke-linecap="round" stroke-linejoin="round"/></svg>
