<svg xmlns="http://www.w3.org/2000/svg" viewBox="0 0 128 128" fill="none"><ellipse cx="64" cy="96" rx="48" ry="18" fill="#F7B5C4" stroke="#5B4636" stroke-width="4" stroke-linecap="round" stroke-linejoin="round"/><ellipse cx="64" cy="92" rx="36" ry="10" fill="#FDE8EE"/><path d="M42.7 57.9 L25.1 44.7 L30.2 65.2 Z" fill="#F59A3E" stroke="#5B4636" stroke-width="4" stroke-linecap="round" stroke-linejoin="round"/><path d="M39.8 59.4 L28.8 49.1 L32.4 63.0 Z" fill="#F7B5C4"/><path d="M49.3 57.9 L66.9 44.7 L61.8 65.2 Z" fill="#F59A3E" stroke="#5B4636" stroke-width="4" stroke-linecap="round" stroke-linejoin="round"/><path d="M52.2 59.4 L63.2 49.1 L59.6 63.0 Z" fill="#F7B5C4"/><circle cx="46.0" cy="70.0" r="22.0" fill="#F59A3E" stroke="#5B4636" stroke-width="4" stroke-linecap="round" stroke-linejoin="round"/><ellipse cx="33.9" cy="74.8" rx="4.0" ry="2.2" fill="#F7B5C4" opacity=".85"/><ellipse cx="58.1" cy="74.8" rx="4.0" ry="2.2" fill="#F7B5C4" opacity=".85"/><path d="M34.1 69.6 Q37.6 73.1 41.2 69.6" stroke="#5B4636" stroke-width="3" stroke-linecap="round" stroke-linejoin="round"/><path d="M50.8 69.6 Q54.4 73.1 57.9 69.6" stroke="#5B4636" stroke-width="3" stroke-linecap="round" stroke-linejoin="round"/><path d="M46.0 76.2 l-2.6 2.2 h5.3 Z" fill="#F7B5C4"/><path d="M39.8 79.7 Q46.0 85.4 52.2 79.7" stroke="#5B4636" stroke-width="3" stroke-linecap="round" stroke-linejoin="round"/><path d="M78.7 59.9 L61.1 46.7 L66.2 67.2 Z" fill="#FFD66B" stroke="#5B4636" stroke-width="4" stroke-linecap="round" stroke-linejoin="round"/><path d="M75.8 61.4 L64.8 51.1 L68.4 65.0 Z" fill="#F7B5C4"/><path d="M85.3 59.9 L102.9 46.7 L97.8 67.2 Z" fill="#FFD66B" stroke="#5B4636" stroke-width="4" stroke-linecap="round" stroke-linejoin="round"/><path d="M88.2 61.4 L99.2 51.1 L95.6 65.0 Z" fill="#F7B5C4"/><circle cx="82.0" cy="72.0" r="22.0" fill="#FFD66B" stroke="#5B4636" stroke-width="4" stroke-linecap="round" stroke-linejoin="round"/><ellipse cx="69.9" cy="76.8" rx="4.0" ry="2.2" fill="#F7B5C4" opacity=".85"/><ellipse cx="94.1" cy="76.8" rx="4.0" ry="2.2" fill="#F7B5C4" opacity=".85"/><path d="M70.1 71.6 Q73.6 75.1 77.2 71.6" stroke="#5B4636" stroke-width="3" stroke-linecap="round" stroke-linejoin="round"/><path d="M86.8 71.6 Q90.4 75.1 93.9 71.6" stroke="#5B4636" stroke-width="3" stroke-linecap="round" stroke-linejoin="round"/><path d="M82.0 78.2 l-2.6 2.2 h5.3 Z" fill="#F7B5C4"/><path d="M75.8 81.7 Q82.0 87.4 88.2 81.7" stroke="#5B4636" stroke-width="3" stroke-linecap="round" stroke-linejoin="round"/><path d="M60 84 Q64 90 70 82" stroke="#5B4636" stroke-width="3" stroke-linecap="round" stroke-linejoin="round" fill="none"/></svg>
