<svg xmlns="http://www.w3.org/2000/svg" viewBox="0 0 128 128" fill="none"><ellipse cx="40.0" cy="104.0" rx="20.0" ry="14.0" fill="#F59A3E" stroke="#5B4636" stroke-width="4" stroke-linecap="round" stroke-linejoin="round"/><ellipse cx="88.0" cy="104.0" rx="20.0" ry="14.0" fill="#8FCBEA" stroke="#5B4636" stroke-width="4" stroke-linecap="round" stroke-linejoin="round"/><path d="M36.4 50.8 L17.2 36.4 L22.7 58.7 Z" fill="#F59A3E" stroke="#5B4636" stroke-width="4" stroke-linecap="round" stroke-linejoin="round"/><path d="M33.3 52.5 L21.3 41.2 L25.1 56.3 Z" fill="#F7B5C4"/><path d="M43.6 50.8 L62.8 36.4 L57.3 58.7 Z" fill="#F59A3E" stroke="#5B4636" stroke-width="4" stroke-linecap="round" stroke-linejoin="round"/><path d="M46.7 52.5 L58.7 41.2 L54.9 56.3 Z" fill="#F7B5C4"/><circle cx="40.0" cy="64.0" r="24.0" fill="#F59A3E" stroke="#5B4636" stroke-width="4" stroke-linecap="round" stroke-linejoin="round"/><ellipse cx="26.8" cy="69.3" rx="4.3" ry="2.4" fill="#F7B5C4" opacity=".85"/><ellipse cx="53.2" cy="69.3" rx="4.3" ry="2.4" fill="#F7B5C4" opacity=".85"/><path d="M26.6 65.0 Q30.9 58.2 35.2 65.0" stroke="#5B4636" stroke-width="3.2" stroke-linecap="round" stroke-linejoin="round"/><path d="M44.8 65.0 Q49.1 58.2 53.4 65.0" stroke="#5B4636" stroke-width="3.2" stroke-linecap="round" stroke-linejoin="round"/><path d="M40.0 70.7 l-2.9 2.4 h5.8 Z" fill="#F7B5C4"/><path d="M33.3 74.6 Q40.0 80.8 46.7 74.6" stroke="#5B4636" stroke-width="3" stroke-linecap="round" stroke-linejoin="round"/><path d="M84.4 50.8 L65.2 36.4 L70.7 58.7 Z" fill="#8FCBEA" stroke="#5B4636" stroke-width="4" stroke-linecap="round" stroke-linejoin="round"/><path d="M81.3 52.5 L69.3 41.2 L73.1 56.3 Z" fill="#F7B5C4"/><path d="M91.6 50.8 L110.8 36.4 L105.3 58.7 Z" fill="#8FCBEA" stroke="#5B4636" stroke-width="4" stroke-linecap="round" stroke-linejoin="round"/><path d="M94.7 52.5 L106.7 41.2 L102.9 56.3 Z" fill="#F7B5C4"/><circle cx="88.0" cy="64.0" r="24.0" fill="#8FCBEA" stroke="#5B4636" stroke-width="4" stroke-linecap="round" stroke-linejoin="round"/><ellipse cx="74.8" cy="69.3" rx="4.3" ry="2.4" fill="#F7B5C4" opacity=".85"/><ellipse cx="101.2" cy="69.3" rx="4.3" ry="2.4" fill="#F7B5C4" opacity=".85"/><path d="M74.6 65.0 Q78.9 58.2 83.2 65.0" stroke="#5B4636" stroke-width="3.2" stroke-linecap="round" stroke-linejoin="round"/><path d="M92.8 65.0 Q97.1 58.2 101.4 65.0" stroke="#5B4636" stroke-width="3.2" stroke-linecap="round" stroke-linejoin="round"/><path d="M88.0 70.7 l-2.9 2.4 h5.8 Z" fill="#F7B5C4"/><path d="M81.3 74.6 Q88.0 80.8 94.7 74.6" stroke="#5B4636" stroke-width="3" stroke-linecap="round" stroke-linejoin="round"/><path d="M52 100 H76" stroke="#5B4636" stroke-width="4" stroke-linecap="round" stroke-linejoin="round"/></svg>
