<svg xmlns="http://www.w3.org/2000/svg" viewBox="0 0 128 128" fill="none"><path d="M36.1 55.7 L15.3 40.1 L21.3 64.3 Z" fill="#F59A3E" stroke="#5B4636" stroke-width="4" stroke-linecap="round" stroke-linejoin="round"/><path d="M32.7 57.5 L19.7 45.3 L23.9 61.7 Z" fill="#F7B5C4"/><path d="M43.9 55.7 L64.7 40.1 L58.7 64.3 Z" fill="#F59A3E" stroke="#5B4636" stroke-width="4" stroke-linecap="round" stroke-linejoin="round"/><path d="M47.3 57.5 L60.3 45.3 L56.1 61.7 Z" fill="#F7B5C4"/><circle cx="40.0" cy="70.0" r="26.0" fill="#F59A3E" stroke="#5B4636" stroke-width="4" stroke-linecap="round" stroke-linejoin="round"/><ellipse cx="25.7" cy="75.7" rx="4.7" ry="2.6" fill="#F7B5C4" opacity=".85"/><ellipse cx="54.3" cy="75.7" rx="4.7" ry="2.6" fill="#F7B5C4" opacity=".85"/><path d="M25.4 71.0 Q30.1 63.8 34.8 71.0" stroke="#5B4636" stroke-width="3.2" stroke-linecap="round" stroke-linejoin="round"/><path d="M45.2 71.0 Q49.9 63.8 54.6 71.0" stroke="#5B4636" stroke-width="3.2" stroke-linecap="round" stroke-linejoin="round"/><path d="M40.0 77.3 l-3.1 2.6 h6.2 Z" fill="#F7B5C4"/><path d="M32.7 81.4 Q40.0 88.2 47.3 81.4" stroke="#5B4636" stroke-width="3" stroke-linecap="round" stroke-linejoin="round"/><path d="M84.1 55.7 L63.3 40.1 L69.3 64.3 Z" fill="#F7B5C4" stroke="#5B4636" stroke-width="4" stroke-linecap="round" stroke-linejoin="round"/><path d="M80.7 57.5 L67.7 45.3 L71.9 61.7 Z" fill="#F7B5C4"/><path d="M91.9 55.7 L112.7 40.1 L106.7 64.3 Z" fill="#F7B5C4" stroke="#5B4636" stroke-width="4" stroke-linecap="round" stroke-linejoin="round"/><path d="M95.3 57.5 L108.3 45.3 L104.1 61.7 Z" fill="#F7B5C4"/><circle cx="88.0" cy="70.0" r="26.0" fill="#F7B5C4" stroke="#5B4636" stroke-width="4" stroke-linecap="round" stroke-linejoin="round"/><ellipse cx="73.7" cy="75.7" rx="4.7" ry="2.6" fill="#F7B5C4" opacity=".85"/><ellipse cx="102.3" cy="75.7" rx="4.7" ry="2.6" fill="#F7B5C4" opacity=".85"/><path d="M73.4 71.0 Q78.1 63.8 82.8 71.0" stroke="#5B4636" stroke-width="3.2" stroke-linecap="round" stroke-linejoin="round"/><path d="M93.2 71.0 Q97.9 63.8 102.6 71.0" stroke="#5B4636" stroke-width="3.2" stroke-linecap="round" stroke-linejoin="round"/><path d="M88.0 77.3 l-3.1 2.6 h6.2 Z" fill="#F7B5C4"/><path d="M80.7 81.4 Q88.0 88.2 95.3 81.4" stroke="#5B4636" stroke-width="3" stroke-linecap="round" stroke-linejoin="round"/><g transform="rotate(-30 58.0 96.0)"><ellipse cx="58.0" cy="100.2" rx="6.3" ry="5.2" fill="#FFE7CF" stroke="#5B4636" stroke-width="3" stroke-linecap="round" stroke-linejoin="round"/><circle cx="53.1" cy="93.2" r="2.3" fill="#FFE7CF" stroke="#5B4636" stroke-width="3" stroke-linecap="round" stroke-linejoin="round"/><circle cx="58.0" cy="91.1" r="2.3" fill="#FFE7CF" stroke="#5B4636" stroke-width="3" stroke-linecap="round" stroke-linejoin="round"/><circle cx="62.9" cy="93.2" r="2.3" fill="#FFE7CF" stroke="#5B4636" stroke-width="3" stroke-linecap="round" stroke-linejoin="round"/></g><g transform="rotate(30 72.0 96.0)"><ellipse cx="72.0" cy="100.2" rx="6.3" ry="5.2" fill="#FDE8EE" stroke="#5B4636" stroke-width="3" stroke-linecap="round" stroke-linejoin="round"/><circle cx="67.1" cy="93.2" r="2.3" fill="#FDE8EE" stroke="#5B4636" stroke-width="3" stroke-linecap="round" stroke-linejoin="round"/><circle cx="72.0" cy="91.1" r="2.3" fill="#FDE8EE" stroke="#5B4636" stroke-width="3" stroke-linecap="round" stroke-linejoin="round"/><circle cx="76.9" cy="93.2" r="2.3" fill="#FDE8EE" stroke="#5B4636" stroke-width="3" stroke-linecap="round" stroke-linejoin="round"/></g></svg>
