<svg xmlns="http://www.w3.org/2000/svg" viewBox="0 0 128 128" fill="none"><g transform="translate(64,34) scale(0.62) translate(-64,-64)"><rect x="28" y="24" width="72" height="80" rx="10" fill="#FFFFFF" stroke="#5B4636" stroke-width="4" stroke-linecap="round" stroke-linejoin="round"/><rect x="28" y="24" width="72" height="16" rx="8" fill="#F7B5C4"/><g transform="rotate(0 46.0 62.0)"><ellipse cx="46.0" cy="64.7" rx="4.0" ry="3.4" fill="#F59A3E" stroke="#5B4636" stroke-width="3" stroke-linecap="round" stroke-linejoin="round"/><circle cx="42.9" cy="60.2" r="1.5" fill="#F59A3E" stroke="#5B4636" stroke-width="3" stroke-linecap="round" stroke-linejoin="round"/><circle cx="46.0" cy="58.9" r="1.5" fill="#F59A3E" stroke="#5B4636" stroke-width="3" stroke-linecap="round" stroke-linejoin="round"/><circle cx="49.1" cy="60.2" r="1.5" fill="#F59A3E" stroke="#5B4636" stroke-width="3" stroke-linecap="round" stroke-linejoin="round"/></g><g transform="rotate(0 70.0 62.0)"><ellipse cx="70.0" cy="64.7" rx="4.0" ry="3.4" fill="#F59A3E" stroke="#5B4636" stroke-width="3" stroke-linecap="round" stroke-linejoin="round"/><circle cx="66.8" cy="60.2" r="1.5" fill="#F59A3E" stroke="#5B4636" stroke-width="3" stroke-linecap="round" stroke-linejoin="round"/><circle cx="70.0" cy="58.9" r="1.5" fill="#F59A3E" stroke="#5B4636" stroke-width="3" stroke-linecap="round" stroke-linejoin="round"/><circle cx="73.2" cy="60.2" r="1.5" fill="#F59A3E" stroke="#5B4636" stroke-width="3" stroke-linecap="round" stroke-linejoin="round"/></g><g transform="rotate(0 58.0 86.0)"><ellipse cx="58.0" cy="88.7" rx="4.0" ry="3.4" fill="#F59A3E" stroke="#5B4636" stroke-width="3" stroke-linecap="round" stroke-linejoin="round"/><circle cx="54.9" cy="84.2" r="1.5" fill="#F59A3E" stroke="#5B4636" stroke-width="3" stroke-linecap="round" stroke-linejoin="round"/><circle cx="58.0" cy="82.8" r="1.5" fill="#F59A3E" stroke="#5B4636" stroke-width="3" stroke-linecap="round" stroke-linejoin="round"/><circle cx="61.1" cy="84.2" r="1.5" fill="#F59A3E" stroke="#5B4636" stroke-width="3" stroke-linecap="round" stroke-linejoin="round"/></g></g><ellipse cx="64" cy="112" rx="50" ry="12" fill="#FDE8EE" stroke="#5B4636" stroke-width="3" stroke-linecap="round" stroke-linejoin="round"/><ellipse cx="78" cy="96" rx="32" ry="15" fill="#F59A3E" stroke="#5B4636" stroke-width="4" stroke-linecap="round" stroke-linejoin="round"/><path d="M43.5 76.7 L29.9 66.5 L33.8 82.3 Z" fill="#F59A3E" stroke="#5B4636" stroke-width="4" stroke-linecap="round" stroke-linejoin="round"/><path d="M41.2 77.8 L32.7 69.8 L35.5 80.6 Z" fill="#F7B5C4"/><path d="M48.5 76.7 L62.1 66.5 L58.2 82.3 Z" fill="#F59A3E" stroke="#5B4636" stroke-width="4" stroke-linecap="round" stroke-linejoin="round"/><path d="M50.8 77.8 L59.3 69.8 L56.5 80.6 Z" fill="#F7B5C4"/><circle cx="46.0" cy="86.0" r="17.0" fill="#F59A3E" stroke="#5B4636" stroke-width="4" stroke-linecap="round" stroke-linejoin="round"/><ellipse cx="36.6" cy="89.7" rx="3.1" ry="1.7" fill="#F7B5C4" opacity=".85"/><ellipse cx="55.4" cy="89.7" rx="3.1" ry="1.7" fill="#F7B5C4" opacity=".85"/><path d="M36.8 85.7 Q39.5 88.4 42.3 85.7" stroke="#5B4636" stroke-width="3" stroke-linecap="round" stroke-linejoin="round"/><path d="M49.7 85.7 Q52.5 88.4 55.2 85.7" stroke="#5B4636" stroke-width="3" stroke-linecap="round" stroke-linejoin="round"/><path d="M46.0 90.8 l-2.0 1.7 h4.1 Z" fill="#F7B5C4"/><path d="M41.2 93.5 Q46.0 97.9 50.8 93.5" stroke="#5B4636" stroke-width="3" stroke-linecap="round" stroke-linejoin="round"/><path d="M102 94 Q120 78 112 102" stroke="#5B4636" stroke-width="3" stroke-linecap="round" stroke-linejoin="round" fill="none"/></svg>
