<svg xmlns="http://www.w3.org/2000/svg" viewBox="0 0 128 128" fill="none"><g transform="translate(64,34) scale(0.62) translate(-64,-64)"><path d="M59.8 62.6 L37.4 45.8 L43.8 71.8 Z" fill="#F59A3E" stroke="#5B4636" stroke-width="4" stroke-linecap="round" stroke-linejoin="round"/><path d="M56.2 64.6 L42.2 51.4 L46.6 69.0 Z" fill="#F7B5C4"/><path d="M68.2 62.6 L90.6 45.8 L84.2 71.8 Z" fill="#F59A3E" stroke="#5B4636" stroke-width="4" stroke-linecap="round" stroke-linejoin="round"/><path d="M71.8 64.6 L85.8 51.4 L81.4 69.0 Z" fill="#F7B5C4"/><circle cx="64.0" cy="78.0" r="28.0" fill="#F59A3E" stroke="#5B4636" stroke-width="4" stroke-linecap="round" stroke-linejoin="round"/><ellipse cx="48.6" cy="84.2" rx="5.0" ry="2.8" fill="#F7B5C4" opacity=".85"/><ellipse cx="79.4" cy="84.2" rx="5.0" ry="2.8" fill="#F7B5C4" opacity=".85"/><circle cx="53.4" cy="77.4" r="3.6" fill="#5B4636"/><circle cx="74.6" cy="77.4" r="3.6" fill="#5B4636"/><circle cx="52.1" cy="76.2" r="1.0" fill="#FFFFFF"/><circle cx="73.4" cy="76.2" r="1.0" fill="#FFFFFF"/><path d="M64.0 85.8 l-3.4 2.8 h6.7 Z" fill="#F7B5C4"/><path d="M56.2 90.3 Q64.0 97.6 71.8 90.3" stroke="#5B4636" stroke-width="3" stroke-linecap="round" stroke-linejoin="round"/><circle cx="42" cy="52" r="16" fill="#8FCBEA" stroke="#5B4636" stroke-width="4" stroke-linecap="round" stroke-linejoin="round"/><circle cx="86" cy="52" r="16" fill="#8FCBEA" stroke="#5B4636" stroke-width="4" stroke-linecap="round" stroke-linejoin="round"/><path d="M58 52 H70" stroke="#5B4636" stroke-width="4" stroke-linecap="round" stroke-linejoin="round"/><circle cx="42" cy="52" r="6" fill="#FFFFFF"/><circle cx="86" cy="52" r="6" fill="#FFFFFF"/></g><ellipse cx="64" cy="112" rx="50" ry="12" fill="#FDE8EE" stroke="#5B4636" stroke-width="3" stroke-linecap="round" stroke-linejoin="round"/><ellipse cx="78" cy="96" rx="32" ry="15" fill="#F59A3E" stroke="#5B4636" stroke-width="4" stroke-linecap="round" stroke-linejoin="round"/><path d="M43.5 76.7 L29.9 66.5 L33.8 82.3 Z" fill="#F59A3E" stroke="#5B4636" stroke-width="4" stroke-linecap="round" stroke-linejoin="round"/><path d="M41.2 77.8 L32.7 69.8 L35.5 80.6 Z" fill="#F7B5C4"/><path d="M48.5 76.7 L62.1 66.5 L58.2 82.3 Z" fill="#F59A3E" stroke="#5B4636" stroke-width="4" stroke-linecap="round" stroke-linejoin="round"/><path d="M50.8 77.8 L59.3 69.8 L56.5 80.6 Z" fill="#F7B5C4"/><circle cx="46.0" cy="86.0" r="17.0" fill="#F59A3E" stroke="#5B4636" stroke-width="4" stroke-linecap="round" stroke-linejoin="round"/><ellipse cx="36.6" cy="89.7" rx="3.1" ry="1.7" fill="#F7B5C4" opacity=".85"/><ellipse cx="55.4" cy="89.7" rx="3.1" ry="1.7" fill="#F7B5C4" opacity=".85"/><path d="M36.8 85.7 Q39.5 88.4 42.3 85.7" stroke="#5B4636" stroke-width="3" stroke-linecap="round" stroke-linejoin="round"/><path d="M49.7 85.7 Q52.5 88.4 55.2 85.7" stroke="#5B4636" stroke-width="3" stroke-linecap="round" stroke-linejoin="round"/><path d="M46.0 90.8 l-2.0 1.7 h4.1 Z" fill="#F7B5C4"/><path d="M41.2 93.5 Q46.0 97.9 50.8 93.5" stroke="#5B4636" stroke-width="3" stroke-linecap="round" stroke-linejoin="round"/><path d="M102 94 Q120 78 112 102" stroke="#5B4636" stroke-width="3" stroke-linecap="round" stroke-linejoin="round" fill="none"/></svg>
